<svg width="145" height="159" viewBox="0 0 145 159" fill="none" xmlns="http://www.w3.org/2000/svg">
<path d="M38.4911 26.4793C38.4911 26.4793 30.612 20.577 29.478 23.6772C27.9858 27.9698 38.4911 26.4793 38.4911 26.4793Z" fill="#199A8E"/>
<path d="M34.8501 27.671C32.6416 27.671 30.075 27.3729 29.0006 26.0613C28.5829 25.5843 28.2248 24.69 28.6425 23.438C28.8814 22.7226 29.3588 22.2456 30.075 22.0667C32.7012 21.2917 38.0137 25.0478 39.0286 25.8228L40.7597 27.1344L38.6108 27.4325C38.0733 27.4922 36.5216 27.671 34.8501 27.671ZM30.9701 23.6765C30.8509 23.6765 30.7317 23.6765 30.6119 23.7361C30.4928 23.7957 30.4332 23.8553 30.3736 23.9746C30.1942 24.5708 30.3736 24.7496 30.4332 24.8689C31.0899 25.7036 33.5969 25.8824 35.9841 25.8228C34.0742 24.69 32.0445 23.6765 30.9701 23.6765Z" fill="#B5CDFB"/>
<path d="M38.4911 26.48C38.4911 26.48 27.2099 27.0166 29.0007 29.8188C31.5076 33.8729 38.4911 26.48 38.4911 26.48Z" fill="#199A8E"/>
<path d="M31.09 31.9651C30.9708 31.9651 30.8516 31.9651 30.7318 31.9651C29.6574 31.8458 28.822 31.3092 28.2249 30.3554C27.8667 29.7591 27.8071 29.1033 28.1057 28.5071C29.2993 26.2416 36.3429 25.7646 38.4918 25.6454L40.7002 25.5261L39.1485 27.1359C38.6705 27.6128 34.4926 31.9651 31.09 31.9651ZM29.6574 29.2822C29.6574 29.2822 29.6574 29.3418 29.7176 29.3418C30.0156 29.8188 30.3737 30.0572 30.9112 30.1169C32.3438 30.2361 34.433 28.8648 35.9848 27.5532C32.7019 27.9705 29.956 28.686 29.6574 29.2822Z" fill="#B5CDFB"/>
<path d="M64.3374 281.53C72.0973 281.232 79.4985 284.154 86.3628 281.53C89.5265 255.834 87.1387 152.692 85.6465 142.139C84.0948 131.646 79.6177 125.505 73.4697 118.589C70.6648 115.429 63.7999 114.535 59.5624 113.223L62.7254 116.145C74.0072 136.892 64.3374 281.53 64.3374 281.53Z" fill="#1561E5"/>
<path d="M75.1412 137.191H27.1503V190.909H75.1412V137.191Z" fill="#199A8E"/>
<path d="M8.7057 156.388C4.64696 156.388 1.24432 153.288 0.946383 149.174C0.349276 141.126 1.84143 123.836 4.46759 108.931C8.1688 87.6463 13.302 73.7547 19.7485 67.614C26.1951 61.4732 37.2974 55.3325 37.7748 55.0939C41.5356 53.0072 46.251 54.3785 48.3402 58.1347C50.4295 61.8905 49.0565 66.6003 45.2957 68.6871C42.5504 70.1775 34.6117 74.9475 30.4332 78.942C29.4183 79.8955 24.2256 85.9172 19.8081 111.614C17.2415 126.638 16.0479 142.258 16.4656 148.101C16.7642 152.394 13.5409 156.09 9.30281 156.388C9.06385 156.388 8.88508 156.388 8.7057 156.388Z" fill="#199A8E"/>
<path d="M104.568 161.696H104.509L83.0203 161.457L81.5282 155.733C80.3346 151.262 79.797 142.617 78.9616 128.904C78.3645 119.127 77.7078 107.978 76.6334 98.7369C75.1412 85.9185 73.5299 82.4008 73.1115 81.6854C70.0676 79.0623 62.487 76.5582 58.1893 75.6636C54.0108 74.8291 51.2649 70.7157 52.1009 66.5421C52.9364 62.3685 57.0553 59.6264 61.2333 60.4608C62.7856 60.759 76.6929 63.7398 83.916 70.596C90.3023 76.6773 92.2128 92.4765 94.3617 128.01C94.7794 134.628 95.1375 141.365 95.6149 146.134L104.568 146.254C108.866 146.314 112.269 149.831 112.269 154.064C112.269 158.297 108.807 161.696 104.568 161.696Z" fill="#199A8E"/>
<path d="M39.805 58.1366C33.7165 65.0529 16.1676 81.5675 14.6159 92.0604C13.0635 102.673 27.5686 117.816 30.7322 143.513C43.0878 148.282 59.5027 151.561 70.9037 144.943C71.7392 143.87 82.8416 101.122 82.9607 100.109C83.1401 98.0822 83.2593 90.9278 83.2593 90.9278C83.2593 90.9278 82.1849 75.7244 80.1552 73.8167C74.5447 68.4509 79.0212 67.9742 74.1866 63.7411C70.008 60.1043 58.6673 55.3343 52.7576 55.2154C45.1771 54.9769 44.4012 52.8902 39.805 58.1366Z" fill="#ACCFFF"/>
<path d="M75.1412 221.792C79.4985 231.928 83.5572 250.409 83.5572 250.409C83.5572 250.409 87.318 101.479 85.7657 90.8664C84.2139 80.3735 79.7368 68.8669 73.5888 61.9512C70.7833 58.7913 66.0679 54.3197 61.89 53.008L62.9042 59.5067C74.1264 80.314 69.4705 208.556 75.1412 221.792Z" fill="#199A8E"/>
<path d="M70.9033 111.077C70.7246 111.077 70.5452 111.018 70.426 110.958C70.0083 110.72 69.8885 110.124 70.1275 109.706L77.8874 97.4244L70.0083 80.433L81.4086 71.6686L67.7992 57.539C67.4411 57.1812 67.4411 56.6444 67.7992 56.2866C68.1574 55.9289 68.6949 55.9289 69.053 56.2866L84.0354 71.8478L72.2167 80.9098L79.9165 97.4839L71.6196 110.601C71.5004 110.958 71.2019 111.077 70.9033 111.077Z" fill="#81AFFF"/>
<path d="M123.073 154.599H73.7682L95.1971 79.3586H144.502L123.073 154.599Z" fill="#44BAD3"/>
<path d="M138.353 82.0425H99.7935L101.345 76.7362H139.905L138.353 82.0425Z" fill="#1689A2"/>
<path d="M69.6499 140.652C70.0676 142.859 71.8583 144.707 74.3057 145.422C77.8872 146.555 84.5727 146.018 89.2285 145.064C93.8844 144.11 91.3774 144.17 95.5559 140.116C96.6899 138.983 102.062 136.539 99.7934 133.379C97.5254 130.219 108.747 125.032 101.346 124.555C98.2417 124.376 95.5559 128.43 91.3774 129.682C87.0797 130.934 81.2898 129.325 81.2898 129.325L82.9011 123.184C80.5139 121.872 75.8581 126.761 74.3057 127.596C73.2313 128.192 70.6647 130.756 69.2917 132.246C68.635 132.902 68.3967 133.796 68.5755 134.631L69.6499 140.652Z" fill="#DCE8FF"/>
<path d="M12.1083 162.649C6.61634 162.649 1.78174 158.774 0.707312 153.229C-0.486289 146.909 3.63204 140.828 9.95941 139.636L59.5021 130.156C65.8295 128.964 71.9179 133.077 73.1115 139.397C74.3051 145.717 70.1868 151.798 63.8594 152.991L14.3167 162.47C13.5408 162.59 12.8245 162.649 12.1083 162.649Z" fill="#199A8E"/>
<path d="M112.806 152.157C112.806 152.157 126.714 136.239 128.923 138.206C131.131 140.173 124.446 154.005 123.132 154.601C122.536 154.84 121.581 157.284 116.865 157.463C111.016 157.642 105.584 155.734 104.629 154.005L112.806 152.157Z" fill="#DCE8FF"/>
<path d="M61.8894 67.1992C64.3964 60.4627 62.7248 46.0941 62.7248 46.0941L42.6689 43.8881C45.1163 50.6848 41.9526 56.1701 41.9526 56.1701C41.9526 61.4757 62.1283 70.7169 61.8894 67.1992Z" fill="#F49B7F"/>
<path d="M63.3829 48.7138L49.1168 47.4618C49.1168 47.4618 42.0136 56.2259 63.3233 55.4509C63.3829 54.1392 63.6219 51.3371 63.3829 48.7138Z" fill="#199A8E"/>
<path d="M74.4256 22.3061V39.0593C74.4256 46.2733 68.5761 52.1161 61.3537 52.1161L49.3556 50.9833C48.8783 50.9833 41.4765 45.856 41.178 44.3655L39.805 36.8534V22.3061C39.805 15.0921 45.6551 9.24933 52.8775 9.24933H61.4133C68.5761 9.24933 74.4256 15.0921 74.4256 22.3061Z" fill="#F49B7F"/>
<path d="M75.559 26.7754H70.6642C70.1869 26.7754 69.7691 26.3581 69.7691 25.8811C69.7691 25.4041 70.1869 24.9868 70.6642 24.9868H75.559C76.0363 24.9868 76.454 25.4041 76.454 25.8811C76.454 26.4177 76.0959 26.7754 75.559 26.7754Z" fill="#199A8E"/>
<path d="M53.4138 28.3245C52.9961 28.3245 52.6379 28.0263 52.5181 27.609C52.4585 27.132 52.7571 26.6551 53.2344 26.5954L58.6668 25.6416C59.1441 25.5819 59.6214 25.88 59.681 26.357C59.7406 26.8339 59.4426 27.3109 58.9647 27.3705L53.533 28.3245C53.4734 28.3245 53.4138 28.3245 53.4138 28.3245Z" fill="#199A8E"/>
<path d="M65.1134 38.5224C64.9943 38.5224 64.8745 38.5224 64.8149 38.4627C64.6361 38.3435 64.5759 38.1646 64.6361 37.9858C64.6957 37.8069 64.8745 37.7473 65.0539 37.8069C65.3524 37.8069 66.785 37.6281 67.7396 37.0915C68.1573 36.853 68.3963 36.3164 68.2771 35.8395L66.2474 28.4466C66.1879 28.2677 66.307 28.0292 66.4864 27.9696C66.6652 27.91 66.9041 28.0292 66.9637 28.2081L68.9934 35.601C69.2317 36.4356 68.8736 37.2703 68.0977 37.6876C67.2623 38.2242 65.8297 38.5224 65.1134 38.5224Z" fill="#216EF4"/>
<path d="M72.1571 31.6637C72.8494 31.6637 73.4102 31.1032 73.4102 30.4117C73.4102 29.7202 72.8494 29.1597 72.1571 29.1597C71.4647 29.1597 70.9033 29.7202 70.9033 30.4117C70.9033 31.1032 71.4647 31.6637 72.1571 31.6637Z" fill="#199A8E"/>
<path d="M58.1895 32.2605C58.8818 32.2605 59.4427 31.7 59.4427 31.0085C59.4427 30.3171 58.8818 29.7565 58.1895 29.7565C57.4972 29.7565 56.9357 30.3171 56.9357 31.0085C56.9357 31.7 57.4972 32.2605 58.1895 32.2605Z" fill="#199A8E"/>
<path d="M74.4249 33.99V39.0577C74.4249 46.2717 67.6202 53.0087 61.4126 53.0087C55.2647 53.0087 49.355 50.9816 49.355 50.9816C49.355 50.9816 52.6379 47.6429 53.4143 43.3503C54.0108 40.0116 49.355 34.9439 49.355 34.9439C49.355 34.9439 66.1281 33.2149 67.9188 32.9764C68.874 32.8572 71.8584 33.4534 74.4249 33.99Z" fill="#199A8E"/>
<path d="M61.4128 53.9047C55.145 53.9047 49.2955 51.8776 49.0566 51.818L47.7438 51.341L48.6984 50.3275C48.7586 50.2678 51.8025 47.108 52.4592 43.1731C52.877 40.7883 49.8331 36.8534 48.6388 35.5417L47.4453 34.2301L49.236 34.0512C49.4147 34.0512 66.009 32.3223 67.7997 32.0838C68.1579 32.0242 69.1727 31.9049 74.6044 33.1569L75.3207 33.3358V39.1189C75.3207 46.3926 68.2771 53.9047 61.4128 53.9047ZM50.9075 50.5063C52.9365 51.1026 57.1151 52.1161 61.4128 52.1161C66.8445 52.1161 73.53 46.0945 73.53 39.0593V34.7071C69.3515 33.8128 68.2771 33.8128 68.0381 33.8724C66.6055 34.0512 55.4435 35.184 51.1458 35.661C52.5784 37.5092 54.7273 40.7883 54.3095 43.4712C53.7124 46.5118 52.0415 49.1351 50.9075 50.5063Z" fill="#B5CDFB"/>
<path d="M49.3552 51.8165C49.0572 51.8165 48.7587 51.6972 48.6389 51.3991L39.0888 37.2692C38.7903 36.8519 38.9095 36.3153 39.3272 36.0172C39.7455 35.7191 40.2824 35.8383 40.581 36.2556L50.1316 50.3856C50.4296 50.8029 50.3104 51.3395 49.8927 51.6376C49.7133 51.7568 49.5345 51.8165 49.3552 51.8165Z" fill="#B5CDFB"/>
<path d="M41.5952 37.3303C38.0733 37.3303 34.3727 34.5281 34.3727 31.0105C34.3727 27.493 36.3422 25.8832 39.8044 25.8832" fill="#F49B7F"/>
<path d="M49.3557 35.7789C49.1167 35.7789 48.8777 35.6597 48.699 35.4809L39.6256 25.3455C39.2675 24.9878 39.3277 24.3916 39.6858 24.0935C40.044 23.7358 40.6405 23.7954 40.939 24.1531L50.0118 34.2885C50.3699 34.6462 50.3103 35.2424 49.9522 35.5405C49.7734 35.7194 49.594 35.7789 49.3557 35.7789Z" fill="#B5CDFB"/>
<path opacity="0.14" d="M65.1729 38.4622C65.0537 38.4622 64.934 38.4622 64.8744 38.4026C64.7552 38.343 64.6956 38.1641 64.7552 37.9852C64.8148 37.866 64.9935 37.8064 65.1133 37.8064C65.3517 37.8064 66.8444 37.6275 67.8587 37.0313C68.3366 36.7929 68.5749 36.1966 68.3962 35.7197L67.6203 32.9771C67.5607 32.7983 67.6799 32.6791 67.8587 32.6194C68.038 32.5598 68.1572 32.6791 68.2168 32.8579L68.9933 35.6004C69.2316 36.3755 68.8735 37.2101 68.1572 37.6275C67.2026 38.1641 65.77 38.4622 65.1729 38.4622Z" fill="#B5CDFB"/>
<path d="M37.5365 25.5241C33.2984 14.8521 37.1188 4.53788 50.2502 1.25882C54.9656 0.0663788 65.7694 1.97426 69.1721 4.95524C72.5145 7.93622 73.9471 12.1096 74.3052 16.8196C74.3648 17.8927 73.2904 18.6678 72.3358 18.2505C70.7238 17.5947 68.1572 16.8196 64.4567 16.8196C57.5322 16.8196 52.9961 18.2505 47.9226 21.8873C42.849 25.5241 37.5365 25.5241 37.5365 25.5241Z" fill="#199A8E"/>
<path d="M36.8797 26.4183L36.6408 25.8222C34.3727 20.039 34.3727 14.3155 36.701 9.78441C39.0882 5.19364 43.6844 1.91458 49.9522 0.364417C54.7868 -0.827956 66.0084 1.02028 69.7096 4.23976C72.9328 7.10152 74.7236 11.1557 75.1413 16.7003C75.2009 17.535 74.8427 18.3101 74.186 18.787C73.5293 19.264 72.6939 19.3832 71.918 19.0255C70.4854 18.4293 67.9785 17.7138 64.397 17.7138C57.7115 17.7138 53.4138 19.0255 48.3999 22.6027C43.1475 26.3587 37.7152 26.4183 37.4768 26.478L36.8797 26.4183ZM53.8316 1.7953C52.5784 1.7953 51.3848 1.91458 50.4891 2.15302C44.6993 3.5839 40.5207 6.56494 38.3719 10.6787C36.3428 14.6136 36.2826 19.5621 38.1335 24.6297C39.6257 24.5105 43.6248 23.8547 47.4452 21.1718C52.6976 17.4158 57.5328 15.9252 64.5162 15.9252C68.3962 15.9252 71.1421 16.76 72.7535 17.4158C72.9924 17.535 73.2314 17.4158 73.291 17.3561C73.3506 17.2965 73.5293 17.1773 73.5293 16.8792C73.1712 11.8711 71.5599 8.17468 68.6947 5.67064C66.1878 3.46468 58.9653 1.7953 53.8316 1.7953Z" fill="#B5CDFB"/>
<path d="M41.7144 287.733C33.9551 287.434 6.91507 279.744 6.91507 279.744C6.91507 279.744 13.1233 101.48 14.6154 90.9272C16.1672 80.4343 23.0315 70.7758 29.1199 63.8595C31.9254 60.7001 38.9691 54.0224 43.2072 52.7108C43.2072 52.7108 42.5505 55.3343 41.9534 56.1688C40.9981 57.5402 41.2967 60.4019 41.2967 60.521C42.2519 68.0926 41.7144 287.733 41.7144 287.733Z" fill="#199A8E"/>
<path d="M40.2825 108.158C39.9845 108.158 39.686 108.039 39.5066 107.741L29.7772 93.0747L35.5075 80.9122L23.808 69.4652L37.4173 55.335C37.7755 54.9774 38.313 54.9774 38.6711 55.335C39.0293 55.6927 39.0293 56.2296 38.6711 56.5873L26.2553 69.4652L37.5967 80.5545L31.8069 92.9551L40.9988 106.787C41.2973 107.204 41.1781 107.741 40.7604 108.039C40.581 108.099 40.4023 108.158 40.2825 108.158Z" fill="#81AFFF"/>
<path d="M36.7605 30.5308C36.6413 30.5308 36.5817 30.5308 36.4619 30.4712C36.1634 30.2923 36.0442 29.9346 36.2236 29.6365C36.9994 28.2652 38.6108 28.444 39.327 28.8018C39.6256 28.9211 39.7448 29.2788 39.6256 29.5769C39.5064 29.8749 39.1483 29.9942 38.8497 29.8749C38.7305 29.8154 37.6561 29.398 37.2378 30.1731C37.1782 30.4115 36.9994 30.5308 36.7605 30.5308Z" fill="#199A8E"/>
</svg>
